<?xml version="1.0" encoding="UTF-8" standalone="no"?>
<!-- Created with Inkscape (http://www.inkscape.org/) -->

<svg
   width="528.87653mm"
   height="332.2825mm"
   viewBox="0 0 528.87653 332.2825"
   version="1.1"
   id="svg5"
   xml:space="preserve"
   inkscape:version="1.2.2 (732a01da63, 2022-12-09)"
   sodipodi:docname="rotative.svg"
   inkscape:export-filename="rotative.svg"
   inkscape:export-xdpi="95.812523"
   inkscape:export-ydpi="95.812523"
   xmlns:inkscape="http://www.inkscape.org/namespaces/inkscape"
   xmlns:sodipodi="http://sodipodi.sourceforge.net/DTD/sodipodi-0.dtd"
   xmlns="http://www.w3.org/2000/svg"
   xmlns:svg="http://www.w3.org/2000/svg"><sodipodi:namedview
     id="namedview7"
     pagecolor="#ffffff"
     bordercolor="#000000"
     borderopacity="0.25"
     inkscape:showpageshadow="2"
     inkscape:pageopacity="0.0"
     inkscape:pagecheckerboard="0"
     inkscape:deskcolor="#d1d1d1"
     inkscape:document-units="mm"
     showgrid="false"
     inkscape:zoom="0.52671151"
     inkscape:cx="290.4816"
     inkscape:cy="632.22465"
     inkscape:window-width="1920"
     inkscape:window-height="1017"
     inkscape:window-x="-8"
     inkscape:window-y="-6"
     inkscape:window-maximized="1"
     inkscape:current-layer="layer1"
     showguides="true"><inkscape:grid
       type="xygrid"
       id="grid2611"
       originx="0"
       originy="0" /></sodipodi:namedview><defs
     id="defs2" /><g
     inkscape:label="Calque 1"
     inkscape:groupmode="layer"
     id="layer1"
     transform="translate(-11.275715,-4.4209924)"><g
       id="Base_Rotative"
       transform="translate(61.912533,30.295737)"><rect
         style="fill:none;stroke:#000000;stroke-width:0.605685"
         id="rect339"
         width="73.513039"
         height="110.87879"
         x="68.243484"
         y="137.63097"
         ry="0" /><path
         style="fill:none;stroke:#000000;stroke-width:0.605685"
         d="M 68.085056,137.64569 100.0485,127.28021 v -16.0827 h 4.66688 v -5.45662 h 4.0925 v 5.31303 h 4.66688 v 16.36989 l 28.43203,10.12348 z"
         id="top"
         inkscape:label="#top"
         sodipodi:nodetypes="ccccccccccc" /><rect
         style="fill:#ffffff;stroke:#000000;stroke-width:0.605685"
         id="top_level_rotative"
         width="17.667501"
         height="5.076869"
         x="96.166252"
         y="143.11395" /><path
         style="fill:none;stroke:#000000;stroke-width:0.605685"
         d="m 68.110837,99.467896 9.5491,7.969554 -0.143602,27.35494 9.26191,-2.94371 v -24.41123 l 8.687524,-7.825957 z"
         id="path569" /><path
         style="fill:none;stroke:#000000;stroke-width:0.605685"
         d="M 66.172297,99.467896 65.885105,78.21581 96.901735,78.359412 V 99.611503 Z"
         id="path571" /><path
         style="fill:none;stroke:#000000;stroke-width:0.605685"
         d="m 65.885105,88.365877 h 5.169439 l 1.723145,2.153932 16.944266,-0.143602 1.148769,-1.723147 h 6.031011"
         id="path573" /><path
         style="fill:none;stroke:#000000;stroke-width:0.605685"
         d="M 69.616479,78.21581 49.369514,57.968845 V 11.874693 H 113.41319 V 59.117614 L 94.386705,78.144018 Z"
         id="7HP612" /><path
         style="fill:none;stroke:#000000;stroke-width:0.605685"
         d="m 68.060692,246.02009 -11.266999,-0.15048 -2.192034,-3.79672 v -3.92013 l -2.474551,-1.42867 v -16.84805 l 3.145591,-3.14557 h 12.893178 z"
         id="path608"
         sodipodi:nodetypes="ccccccccc" /><path
         style="fill:none;stroke:#000000;stroke-width:0.605685"
         d="m 141.83351,246.0209 h 10.96604 l 2.19203,-3.79672 v -3.92012 l 2.47455,-1.42867 v -16.84806 l -3.14559,-3.14557 h -12.44173 z"
         id="path608-4"
         sodipodi:nodetypes="ccccccccc" /><path
         style="fill:none;stroke:#000000;stroke-width:0.605685"
         d="m 68.420323,248.53906 16.583282,32.99399 39.325355,7.8e-4 17.24192,-32.98504 z"
         id="path740"
         sodipodi:nodetypes="ccccc" /><rect
         style="fill:none;stroke:#000000;stroke-width:0.605685"
         id="bottom_level_rotative"
         width="18.073648"
         height="5.483017"
         x="95.963173"
         y="260.69397" /><g
         id="Filter"
         transform="matrix(0.84235372,0,0,1.0016406,20.222021,0.17351298)"
         style="display:inline;fill:#ffffff"><path
           style="display:inline;stroke:#000000;stroke-width:0.606;stroke-dasharray:none"
           d="m 121.67208,106.53066 v 18.88281 c 0,0 1.35348,2.47067 9.22072,2.47067 7.86722,0 10.73913,-2.11168 10.73913,-2.11168 v -19.60079 c 0,0 -5.47385,-3.10452 -9.92533,-3.10452 -4.45149,0 -10.03797,3.06371 -10.03797,3.06371 z"
           id="Filter_bound"
           sodipodi:nodetypes="ccsccscc" /><path
           style="fill:none;stroke:#000000;stroke-width:0.743599;stroke-dasharray:none"
           d="m 121.72074,106.19934 c 0,0 1.72088,3.53171 9.20297,3.53171 7.48211,0 10.62459,-3.30385 10.62459,-3.30385"
           id="path957-1-1-0-3" /><path
           style="fill:none;stroke:#000000;stroke-width:0.605999;stroke-dasharray:none"
           d="M 15.09606,154.86781 H 31.524125"
           id="path3003-4-4-0"
           transform="rotate(90,92.143428,185.64496)" /><path
           style="fill:none;stroke:#000000;stroke-width:0.605999;stroke-dasharray:none"
           d="M 15.007259,137.46294 H 31.701726"
           id="path3029-7-1-5"
           transform="rotate(90,92.143428,185.64496)" /><path
           style="fill:none;stroke:#000000;stroke-width:0.605999;stroke-dasharray:none"
           d="M 17.049667,140.12695 H 31.790526"
           id="path3031-4-2-3"
           transform="rotate(90,92.143428,185.64496)" /><path
           style="fill:none;stroke:#000000;stroke-width:0.605999;stroke-dasharray:none"
           d="M 17.138468,152.2926 H 31.790526"
           id="path3033-3-66-7"
           transform="rotate(90,92.143428,185.64496)" /><path
           style="fill:none;stroke:#000000;stroke-width:0.605999;stroke-dasharray:none"
           d="M 18.648074,149.53979 H 31.790526"
           id="path3035-6-0-0"
           transform="rotate(90,92.143428,185.64496)" /><path
           style="fill:none;stroke:#000000;stroke-width:0.605999;stroke-dasharray:none"
           d="M 18.470473,142.79096 H 31.612924"
           id="path3037-1-1-5"
           transform="rotate(90,92.143428,185.64496)" /><rect
           style="fill:#000000;stroke:#000000;stroke-width:0.605999;stroke-dasharray:none"
           id="rect3039-3-5-3"
           width="4.7064185"
           height="1.0656042"
           x="34.89854"
           y="145.89897"
           transform="rotate(90,92.143428,185.64496)" /><circle
           style="fill:#000000;stroke:#000000;stroke-width:0.317865;stroke-dasharray:none"
           id="path3093-3-8-8"
           cx="12.118727"
           cy="146.17822"
           r="0.39523214"
           transform="rotate(90,92.143428,185.64496)" /></g><rect
         style="fill:#ffffff;stroke:#000000;stroke-width:0.605685"
         id="Center_Filler"
         width="15.508316"
         height="24.69842"
         x="97.24585"
         y="168.06151" /><rect
         style="fill:#ffffff;stroke:#000000;stroke-width:0.605685"
         id="Right_Filler"
         width="13.210786"
         height="24.698425"
         x="134.95398"
         y="168.06151"
         onmouseover="this.style.fill=&quot;#8ddb23&quot;" /><rect
         style="fill:#ffffff;stroke:#000000;stroke-width:0.605685"
         id="Left_Filler"
         width="13.210786"
         height="24.698425"
         x="61.709206"
         y="168.06152" /></g><g
       id="7SR684"
       transform="matrix(1.2483427,0,0,0.99187258,-33.004992,0.48955373)"
       style="fill:#ffffff"><rect
         style="stroke:#000000;stroke-width:0.605999;stroke-dasharray:none"
         id="7SR684_bound"
         width="220.21806"
         height="8.9214249"
         x="94.598938"
         y="316.24185" /><path
         style="stroke:#000000;stroke-width:0.616406;stroke-dasharray:none"
         d="m 94.839935,325.18303 15.488445,-8.62813 15.48673,8.62718 16.19858,-9.02375 15.70472,8.74861 15.3359,-8.54315 15.59995,8.69024 15.55328,-8.66423 15.63492,8.70972 15.41349,-8.58636 15.34931,8.55059 15.7952,-8.79898 16.00166,8.914 16.13735,-8.98959 15.87326,8.84251"
         id="path2905" /></g><g
       id="7SR682"
       transform="matrix(1.2483427,0,0,0.99187258,87.043803,-13.095607)"
       style="fill:#ffffff"><rect
         style="stroke:#000000;stroke-width:0.605999;stroke-dasharray:none"
         id="7SR682_bound"
         width="220.21806"
         height="8.9214249"
         x="94.598938"
         y="316.24185" /><path
         style="stroke:#000000;stroke-width:0.616406;stroke-dasharray:none"
         d="m 94.839935,325.18303 15.488445,-8.62813 15.48673,8.62718 16.19858,-9.02375 15.70472,8.74861 15.3359,-8.54315 15.59995,8.69024 15.55328,-8.66423 15.63492,8.70972 15.41349,-8.58636 15.34931,8.55059 15.7952,-8.79898 16.00166,8.914 16.13735,-8.98959 15.87326,8.84251"
         id="path2905-2" /></g><g
       id="7SR680"
       transform="matrix(1.2483427,0,0,0.99187258,146.77455,-26.512636)"
       style="fill:#ffffff"><rect
         style="stroke:#000000;stroke-width:0.605999;stroke-dasharray:none"
         id="7SR680_bound"
         width="220.21806"
         height="8.9214249"
         x="94.598938"
         y="316.24185" /><path
         style="stroke:#000000;stroke-width:0.616406;stroke-dasharray:none"
         d="m 94.839935,325.18303 15.488445,-8.62813 15.48673,8.62718 16.19858,-9.02375 15.70472,8.74861 15.3359,-8.54315 15.59995,8.69024 15.55328,-8.66423 15.63492,8.70972 15.41349,-8.58636 15.34931,8.55059 15.7952,-8.79898 16.00166,8.914 16.13735,-8.98959 15.87326,8.84251"
         id="path2905-2-9" /></g><g
       id="7EL410"
       transform="matrix(0,-0.84235373,1.0016406,0,-77.896728,123.98041)"
       style="display:inline;fill:#ffffff"><path
         style="display:inline;stroke:#000000;stroke-width:0.606;stroke-dasharray:none"
         d="m 121.67208,106.53066 v 18.88281 c 0,0 1.35348,2.47067 9.22072,2.47067 7.86722,0 10.73913,-2.11168 10.73913,-2.11168 v -19.60079 c 0,0 -5.47385,-3.10452 -9.92533,-3.10452 -4.45149,0 -10.03797,3.06371 -10.03797,3.06371 z"
         id="path561-5-5"
         sodipodi:nodetypes="ccsccscc" /><path
         style="fill:none;stroke:#000000;stroke-width:0.743599;stroke-dasharray:none"
         d="m 121.72074,106.19934 c 0,0 1.72088,3.53171 9.20297,3.53171 7.48211,0 10.62459,-3.30385 10.62459,-3.30385"
         id="path957-1-1" /><path
         style="fill:none;stroke:#000000;stroke-width:0.605999;stroke-dasharray:none"
         d="M 15.09606,154.86781 H 31.524125"
         id="path3003-4"
         transform="rotate(90,92.143428,185.64496)" /><path
         style="fill:none;stroke:#000000;stroke-width:0.605999;stroke-dasharray:none"
         d="M 15.007259,137.46294 H 31.701726"
         id="path3029-7"
         transform="rotate(90,92.143428,185.64496)" /><path
         style="fill:none;stroke:#000000;stroke-width:0.605999;stroke-dasharray:none"
         d="M 17.049667,140.12695 H 31.790526"
         id="path3031-4"
         transform="rotate(90,92.143428,185.64496)" /><path
         style="fill:none;stroke:#000000;stroke-width:0.605999;stroke-dasharray:none"
         d="M 17.138468,152.2926 H 31.790526"
         id="path3033-3"
         transform="rotate(90,92.143428,185.64496)" /><path
         style="fill:none;stroke:#000000;stroke-width:0.605999;stroke-dasharray:none"
         d="M 18.648074,149.53979 H 31.790526"
         id="path3035-6"
         transform="rotate(90,92.143428,185.64496)" /><path
         style="fill:none;stroke:#000000;stroke-width:0.605999;stroke-dasharray:none"
         d="M 18.470473,142.79096 H 31.612924"
         id="path3037-1"
         transform="rotate(90,92.143428,185.64496)" /><rect
         style="fill:#000000;stroke:#000000;stroke-width:0.605999;stroke-dasharray:none"
         id="rect3039-3"
         width="4.7064185"
         height="1.0656042"
         x="34.89854"
         y="145.89897"
         transform="rotate(90,92.143428,185.64496)" /><circle
         style="fill:#000000;stroke:#000000;stroke-width:0.317865;stroke-dasharray:none"
         id="path3093-3"
         cx="12.118727"
         cy="146.17822"
         r="0.39523214"
         transform="rotate(90,92.143428,185.64496)" /></g><g
       id="7HT430"
       transform="matrix(0,-0.84235373,1.0016406,0,-91.657029,257.51833)"
       style="display:inline;fill:#ffffff"><path
         style="display:inline;stroke:#000000;stroke-width:0.606;stroke-dasharray:none"
         d="m 121.67208,106.53066 v 18.88281 c 0,0 1.35348,2.47067 9.22072,2.47067 7.86722,0 10.73913,-2.11168 10.73913,-2.11168 v -19.60079 c 0,0 -5.47385,-3.10452 -9.92533,-3.10452 -4.45149,0 -10.03797,3.06371 -10.03797,3.06371 z"
         id="path561-5-5-8"
         sodipodi:nodetypes="ccsccscc" /><path
         style="fill:none;stroke:#000000;stroke-width:0.743599;stroke-dasharray:none"
         d="m 121.72074,106.19934 c 0,0 1.72088,3.53171 9.20297,3.53171 7.48211,0 10.62459,-3.30385 10.62459,-3.30385"
         id="path957-1-1-0" /><path
         style="fill:none;stroke:#000000;stroke-width:0.605999;stroke-dasharray:none"
         d="M 15.09606,154.86781 H 31.524125"
         id="path3003-4-4"
         transform="rotate(90,92.143428,185.64496)" /><path
         style="fill:none;stroke:#000000;stroke-width:0.605999;stroke-dasharray:none"
         d="M 15.007259,137.46294 H 31.701726"
         id="path3029-7-1"
         transform="rotate(90,92.143428,185.64496)" /><path
         style="fill:none;stroke:#000000;stroke-width:0.605999;stroke-dasharray:none"
         d="M 17.049667,140.12695 H 31.790526"
         id="path3031-4-2"
         transform="rotate(90,92.143428,185.64496)" /><path
         style="fill:none;stroke:#000000;stroke-width:0.605999;stroke-dasharray:none"
         d="M 17.138468,152.2926 H 31.790526"
         id="path3033-3-66"
         transform="rotate(90,92.143428,185.64496)" /><path
         style="fill:none;stroke:#000000;stroke-width:0.605999;stroke-dasharray:none"
         d="M 18.648074,149.53979 H 31.790526"
         id="path3035-6-0"
         transform="rotate(90,92.143428,185.64496)" /><path
         style="fill:none;stroke:#000000;stroke-width:0.605999;stroke-dasharray:none"
         d="M 18.470473,142.79096 H 31.612924"
         id="path3037-1-1"
         transform="rotate(90,92.143428,185.64496)" /><rect
         style="fill:#000000;stroke:#000000;stroke-width:0.605999;stroke-dasharray:none"
         id="rect3039-3-5"
         width="4.7064185"
         height="1.0656042"
         x="34.89854"
         y="145.89897"
         transform="rotate(90,92.143428,185.64496)" /><circle
         style="fill:#000000;stroke:#000000;stroke-width:0.317865;stroke-dasharray:none"
         id="path3093-3-8"
         cx="12.118727"
         cy="146.17822"
         r="0.39523214"
         transform="rotate(90,92.143428,185.64496)" /></g><g
       id="7EL7412"
       transform="matrix(-0.36448261,0,0,-0.56738063,109.14337,91.721277)"
       style="display:inline;fill:#ffffff"><path
         style="display:inline;stroke:#000000;stroke-width:0.606;stroke-dasharray:none"
         d="m 121.67208,106.53066 v 18.88281 c 0,0 1.35348,2.47067 9.22072,2.47067 7.86722,0 10.73913,-2.11168 10.73913,-2.11168 v -19.60079 c 0,0 -5.47385,-3.10452 -9.92533,-3.10452 -4.45149,0 -10.03797,3.06371 -10.03797,3.06371 z"
         id="path561-5-5-2"
         sodipodi:nodetypes="ccsccscc" /><path
         style="fill:none;stroke:#000000;stroke-width:0.743599;stroke-dasharray:none"
         d="m 121.72074,106.19934 c 0,0 1.72088,3.53171 9.20297,3.53171 7.48211,0 10.62459,-3.30385 10.62459,-3.30385"
         id="path957-1-1-6" /><path
         style="fill:none;stroke:#000000;stroke-width:0.605999;stroke-dasharray:none"
         d="M 15.09606,154.86781 H 31.524125"
         id="path3003-4-9"
         transform="rotate(90,92.143428,185.64496)" /><path
         style="fill:none;stroke:#000000;stroke-width:0.605999;stroke-dasharray:none"
         d="M 15.007259,137.46294 H 31.701726"
         id="path3029-7-5"
         transform="rotate(90,92.143428,185.64496)" /><path
         style="fill:none;stroke:#000000;stroke-width:0.605999;stroke-dasharray:none"
         d="M 17.049667,140.12695 H 31.790526"
         id="path3031-4-8"
         transform="rotate(90,92.143428,185.64496)" /><path
         style="fill:none;stroke:#000000;stroke-width:0.605999;stroke-dasharray:none"
         d="M 17.138468,152.2926 H 31.790526"
         id="path3033-3-6"
         transform="rotate(90,92.143428,185.64496)" /><path
         style="fill:none;stroke:#000000;stroke-width:0.605999;stroke-dasharray:none"
         d="M 18.648074,149.53979 H 31.790526"
         id="path3035-6-5"
         transform="rotate(90,92.143428,185.64496)" /><path
         style="fill:none;stroke:#000000;stroke-width:0.605999;stroke-dasharray:none"
         d="M 18.470473,142.79096 H 31.612924"
         id="path3037-1-0"
         transform="rotate(90,92.143428,185.64496)" /><rect
         style="fill:#000000;stroke:#000000;stroke-width:0.605999;stroke-dasharray:none"
         id="rect3039-3-8"
         width="4.7064185"
         height="1.0656042"
         x="34.89854"
         y="145.89897"
         transform="rotate(90,92.143428,185.64496)" /><circle
         style="fill:#000000;stroke:#000000;stroke-width:0.317865;stroke-dasharray:none"
         id="path3093-3-6"
         cx="12.118727"
         cy="146.17822"
         r="0.39523214"
         transform="rotate(90,92.143428,185.64496)" /></g><g
       id="7SC610" style="fill:#ffffff"><path
         style="display:inline;stroke:#000000;stroke-width:0.605999;stroke-dasharray:none"
         d="M 80.112099,324.34456 H 96.68901 L 84.633075,336.40049 H 63.535189 L 51.981584,324.8469 h 15.57225 V 10.890256 l 5.525635,-5.5256353 h 17.581573 l 4.269812,4.2698096 V 19.429877 H 80.112099 Z"
         id="path2911" /><path
         style="display:inline;stroke:#000000;stroke-width:0.605999;stroke-dasharray:none"
         d="m 126.83849,38.679461 h 8.53962 l 2.26049,-1.758159 v -6.279134 l -52.744721,-8.53962 v 9.041953 z"
         id="path2958" /><path
         style="display:inline;stroke:#000000;stroke-width:0.605999;stroke-dasharray:none"
         d="m 85.599904,22.022487 1.803728,-1.041383 v -1.622628 h 4.856298 v 1.420806 h 1.776007 l 3.063611,3.063612 z"
         id="path2964" /></g><rect
       style="display:inline;fill:none;stroke:#000000;stroke-width:0.605999;stroke-dasharray:none"
       id="rect3103"
       width="11.428043"
       height="5.0232992"
       x="149.00906"
       y="-266.98828"
       transform="translate(-93.50153,277.7884)" /><g
       id="7FT422"
       transform="translate(-13.758336,-73.02504)"
       style="fill:#ffffff"><path
         style="stroke:#000000;stroke-width:0.605999;stroke-dasharray:none"
         d="m 346.79651,139.58513 h -8.91635 v -2.00933 h -34.84919 v 10.10941 h -3.7047 v 3.45352 h 3.45353 v 10.1722 h 3.64188 l 0.87233,1.51089 v 1.18913 h 4.27657 v -1.25582 l 1.31863,-1.31862 h 24.5514 v -18.58623 h 9.04195 c 0,0 -0.25117,-2.26049 0.31395,-3.26515 z"
         id="7FT422_bound" /><path
         style="fill:none;stroke:#000000;stroke-width:0.605999;stroke-dasharray:none"
         d="m 303.20879,143.8937 h 2.39763 v 9.36844 h 3.996 v -9.36844 h 3.90721 v 9.36844 h 4.04043 v -9.36844 h 3.9516 v 9.36844 h 3.99603 v -9.32403 h 3.86281 v 9.36843 h 3.99603 v -9.41284 h 4.0404"
         id="path3833" /></g><g
       id="7FN420"
       transform="translate(-13.758336,-73.02504)"
       style="fill:#ffffff"><circle
         style="stroke:#000000;stroke-width:0.605999;stroke-dasharray:none"
         id="7FN420_hover"
         cx="354.30008"
         cy="142.12817"
         r="7.8175206" /><circle
         style="stroke:#000000;stroke-width:0.605999;stroke-dasharray:none"
         id="path3667"
         cx="354.31339"
         cy="141.99178"
         r="2.9304116" /><path
         style="stroke:#000000;stroke-width:0.605999;stroke-dasharray:none"
         d="M 359.28622,135.95334 V 125.4749 h -3.64082 l 5.41684,-5.41682 5.68322,5.68322 h -4.08482 v 10.56724 l -1.554,1.55401 z"
         id="path3669" /><path
         style="stroke:#000000;stroke-width:0.605999;stroke-dasharray:none"
         d="m 347.12058,145.72138 -7.90324,7.90323 h 30.19213 l -8.12525,-8.12523 c 0,0 -1.82041,4.48441 -6.88202,4.39561 -5.06161,-0.0888 -7.28162,-4.17361 -7.28162,-4.17361 z"
         id="path3671" /></g>
         <g id="7RG42"
         style="fill:#ffffff"><circle
         style="stroke:#000000;stroke-width:0.605999;stroke-dasharray:none"
         id="path3839"
         cx="295.22226"
         cy="101.0687"
         r="8.0364323" /><circle
         style="fill:none;stroke:#000000;stroke-width:0.605999;stroke-dasharray:none"
         id="path3845"
         cx="295.22226"
         cy="101.0687"
         r="2.5752101" /><path
         style="fill:none;stroke:#000000;stroke-width:0.605999;stroke-dasharray:none"
         d="m 297.26481,102.93243 c 4.17362,3.41882 2.4864,4.79523 2.4864,4.79523"
         id="path3855" /><path
         style="fill:none;stroke:#000000;stroke-width:0.605999;stroke-dasharray:none"
         d="m 294.69551,103.48701 c 0.50857,5.3711 -1.65668,5.14118 -1.65668,5.14118"
         id="path3855-3" /><path
         style="fill:none;stroke:#000000;stroke-width:0.605999;stroke-dasharray:none"
         d="m 293.28573,103.13474 c -3.65173,3.97143 -4.92948,2.20831 -4.92948,2.20831"
         id="path3855-3-4" /><path
         style="fill:none;stroke:#000000;stroke-width:0.605999;stroke-dasharray:none"
         d="m 296.99587,99.211166 2.00932,-1.946518 0.0628,-2.825595 0.50233,-0.0628 1.75816,1.381404 1.13025,1.758138 -3.46231,-0.244377 z"
         id="path4024" /><path
         style="fill:none;stroke:#000000;stroke-width:0.605999;stroke-dasharray:none"
         d="m 292.37254,101.01452 c -5.38247,-0.36946 -4.80436,-2.468731 -4.80436,-2.468731"
         id="path3855-3-42" /><path
         style="fill:none;stroke:#000000;stroke-width:0.605999;stroke-dasharray:none"
         d="m 293.53451,99.000086 c -4.22362,-3.356839 -2.55691,-4.757993 -2.55691,-4.757993"
         id="path3855-3-42-2" /><path
         style="stroke:#000000;stroke-width:0.605999;stroke-dasharray:none"
         d="m 297.93909,100.71472 c 5.3258,-0.862237 5.2394,1.31347 5.2394,1.31347"
         id="path3855-3-42-2-5" /><path
         style="fill:none;stroke:#000000;stroke-width:0.605999;stroke-dasharray:none"
         d="m 295.36583,98.231202 c 0.57152,-5.36476 2.64758,-4.708143 2.64758,-4.708143"
         id="path3855-3-42-2-5-9" /><path
         style="stroke:#000000;stroke-width:0.605999;stroke-dasharray:none"
         d="m 294.98654,127.1219 -4.79928,-8.31259 h 9.60282 z"
         id="path4054" /><path
         style="stroke:#000000;stroke-width:0.605999;stroke-dasharray:none"
         d="m 294.48423,118.64508 v -6.43612 h 1.41279 v 6.43612 z"
         id="path4056" />
         </g></g></svg>
